<svg width="44" height="44" viewBox="0 0 44 44" fill="none" xmlns="http://www.w3.org/2000/svg">
<rect x="0.5" y="0.5" width="43" height="43" rx="21.5" fill="#F6F3FC"/>
<rect x="0.5" y="0.5" width="43" height="43" rx="21.5" stroke="url(#paint0_linear_1_825)"/>
<path d="M19.3025 27.1147V24.5715H17.5461C17.3132 24.5715 17.0899 24.479 16.9252 24.3143C16.7605 24.1496 16.668 23.9262 16.668 23.6933V17.5461C16.668 17.3132 16.7605 17.0899 16.9252 16.9252C17.0899 16.7605 17.3132 16.668 17.5461 16.668H27.206C27.4389 16.668 27.6623 16.7605 27.827 16.9252C27.9917 17.0899 28.0842 17.3132 28.0842 17.5461V23.6933C28.0842 23.9262 27.9917 24.1496 27.827 24.3143C27.6623 24.479 27.4389 24.5715 27.206 24.5715H22.3761L19.6775 27.2701C19.6468 27.3009 19.6076 27.3219 19.565 27.3304C19.5223 27.3389 19.4781 27.3345 19.438 27.3179C19.3978 27.3013 19.3635 27.2731 19.3394 27.2369C19.3152 27.2007 19.3024 27.1582 19.3025 27.1147Z" stroke="#7A58D0"/>
<path d="M19.3047 21.9372H25.4519M19.3047 19.3027H25.4519" stroke="#7A58D0" stroke-linecap="round"/>
<defs>
<linearGradient id="paint0_linear_1_825" x1="22" y1="0" x2="22" y2="44" gradientUnits="userSpaceOnUse">
<stop offset="0.0001" stop-color="#AC49D4"/>
<stop offset="1" stop-color="#3A3EBB"/>
</linearGradient>
</defs>
</svg>
