<svg width="16" height="16" viewBox="0 0 16 16" fill="none" xmlns="http://www.w3.org/2000/svg">
<g clip-path="url(#clip0_1_917)">
<path d="M9.42396 14.4086V14.8644C9.42395 14.9615 9.39833 15.0463 9.34815 15.1194L9.28908 15.1893C9.1999 15.2761 9.08922 15.3192 8.95632 15.3192H6.49999C6.40029 15.3192 6.31306 15.2953 6.23811 15.2464L6.16723 15.1893C6.07789 15.1022 6.03335 14.9939 6.03333 14.8644V14.4086H9.42396ZM7.72865 4.36171C6.94855 4.36171 6.26853 4.59615 5.68974 5.06563L5.44756 5.28124C4.81923 5.89433 4.50448 6.63631 4.5044 7.50621C4.5044 8.01996 4.62681 8.50428 4.87064 8.95835C5.08401 9.3557 5.37125 9.693 5.73208 9.97042L5.89058 10.0856L6.35034 10.4026V11.8902C6.35039 11.9349 6.36139 11.9741 6.38382 12.0074L6.4104 12.0389C6.45035 12.0777 6.50126 12.0969 6.56201 12.0969H8.8943C8.93988 12.0969 8.98037 12.0862 9.01441 12.0645L9.04689 12.0389C9.08684 11.9999 9.10688 11.9498 9.10695 11.8902V10.4026L9.56573 10.0856C10.002 9.78819 10.3419 9.41233 10.5857 8.95835C10.8295 8.50427 10.9519 8.01997 10.9519 7.50621C10.9518 6.74498 10.7105 6.08217 10.2293 5.51752L10.0088 5.28124C9.38033 4.66813 8.62004 4.36179 7.72865 4.36171ZM10.0403 11.8902C10.0402 12.1601 9.95488 12.3951 9.7833 12.5961L9.70454 12.6798C9.4805 12.8983 9.21058 13.0076 8.8943 13.0076H6.56201C6.28506 13.0076 6.04357 12.9241 5.83742 12.7566L5.75177 12.6798C5.52787 12.4613 5.41612 12.1984 5.41605 11.8902V10.8899H5.42787L5.40916 10.8781C4.90279 10.5479 4.49428 10.1347 4.18346 9.63864L4.05547 9.42008C3.7321 8.82585 3.5711 8.18962 3.5711 7.51212C3.57118 6.4541 3.925 5.54514 4.63436 4.78505L4.78105 4.6354C5.58842 3.84574 6.57119 3.45105 7.72865 3.45105C8.81356 3.45112 9.74442 3.79657 10.5217 4.48871L10.6753 4.63245C11.4824 5.41999 11.8861 6.37754 11.8862 7.50621C11.8862 8.10269 11.7618 8.66457 11.5141 9.19168L11.4008 9.41516C11.0775 10.0063 10.6262 10.4941 10.0471 10.8781L10.055 10.8899L10.0403 10.8693V11.8902Z" fill="#FAFAFA" stroke="#FAFAFA" stroke-width="0.028341"/>
<path d="M4.19892 11.2644L2.91523 12.5168" stroke="#FAFAFA" stroke-width="1.13364" stroke-linecap="round"/>
<path d="M2.4829 7.76582H0.667502" stroke="#FAFAFA" stroke-width="1.13364" stroke-linecap="round"/>
<path d="M3.80848 4.10917L2.5248 2.85678" stroke="#FAFAFA" stroke-width="1.13364" stroke-linecap="round"/>
<path d="M7.39491 2.4377V0.666556" stroke="#FAFAFA" stroke-width="1.13364" stroke-linecap="round"/>
<path d="M11.1391 3.72788L12.4228 2.47549" stroke="#FAFAFA" stroke-width="1.13364" stroke-linecap="round"/>
<path d="M12.8521 7.8736H14.6675" stroke="#FAFAFA" stroke-width="1.13364" stroke-linecap="round"/>
<path d="M11.5797 11.2644L12.8634 12.5168" stroke="#FAFAFA" stroke-width="1.13364" stroke-linecap="round"/>
</g>
<defs>
<clipPath id="clip0_1_917">
<rect width="15.871" height="15.871" fill="white" transform="scale(1.00813)"/>
</clipPath>
</defs>
</svg>
