<svg width="16" height="16" viewBox="0 0 16 16" fill="none" xmlns="http://www.w3.org/2000/svg">
<mask id="path-1-inside-1_1_911" fill="white">
<path d="M11.125 2.50002C9.83438 2.50002 8.70438 3.05502 8.00001 3.99314C7.29563 3.05502 6.16563 2.50002 4.87501 2.50002C3.84765 2.50118 2.8627 2.90981 2.13625 3.63626C1.4098 4.36271 1.00117 5.34766 1.00001 6.37502C1.00001 10.75 7.48688 14.2913 7.76313 14.4375C7.83594 14.4767 7.91733 14.4972 8.00001 14.4972C8.08268 14.4972 8.16407 14.4767 8.23688 14.4375C8.51313 14.2913 15 10.75 15 6.37502C14.9988 5.34766 14.5902 4.36271 13.8638 3.63626C13.1373 2.90981 12.1524 2.50118 11.125 2.50002ZM8.00001 13.425C6.85876 12.76 2.00001 9.73064 2.00001 6.37502C2.001 5.61283 2.30422 4.88213 2.84317 4.34318C3.38212 3.80423 4.11281 3.50101 4.87501 3.50002C6.09063 3.50002 7.11126 4.14752 7.53751 5.18752C7.57518 5.27922 7.63926 5.35766 7.72161 5.41286C7.80396 5.46806 7.90086 5.49754 8.00001 5.49754C8.09915 5.49754 8.19605 5.46806 8.2784 5.41286C8.36075 5.35766 8.42483 5.27922 8.46251 5.18752C8.88876 4.14564 9.90938 3.50002 11.125 3.50002C11.8872 3.50101 12.6179 3.80423 13.1568 4.34318C13.6958 4.88213 13.999 5.61283 14 6.37502C14 9.72564 9.14 12.7594 8.00001 13.425Z"/>
</mask>
<path d="M11.125 2.50002C9.83438 2.50002 8.70438 3.05502 8.00001 3.99314C7.29563 3.05502 6.16563 2.50002 4.87501 2.50002C3.84765 2.50118 2.8627 2.90981 2.13625 3.63626C1.4098 4.36271 1.00117 5.34766 1.00001 6.37502C1.00001 10.75 7.48688 14.2913 7.76313 14.4375C7.83594 14.4767 7.91733 14.4972 8.00001 14.4972C8.08268 14.4972 8.16407 14.4767 8.23688 14.4375C8.51313 14.2913 15 10.75 15 6.37502C14.9988 5.34766 14.5902 4.36271 13.8638 3.63626C13.1373 2.90981 12.1524 2.50118 11.125 2.50002ZM8.00001 13.425C6.85876 12.76 2.00001 9.73064 2.00001 6.37502C2.001 5.61283 2.30422 4.88213 2.84317 4.34318C3.38212 3.80423 4.11281 3.50101 4.87501 3.50002C6.09063 3.50002 7.11126 4.14752 7.53751 5.18752C7.57518 5.27922 7.63926 5.35766 7.72161 5.41286C7.80396 5.46806 7.90086 5.49754 8.00001 5.49754C8.09915 5.49754 8.19605 5.46806 8.2784 5.41286C8.36075 5.35766 8.42483 5.27922 8.46251 5.18752C8.88876 4.14564 9.90938 3.50002 11.125 3.50002C11.8872 3.50101 12.6179 3.80423 13.1568 4.34318C13.6958 4.88213 13.999 5.61283 14 6.37502C14 9.72564 9.14 12.7594 8.00001 13.425Z" fill="#343330"/>
<path d="M11.125 2.50002L11.1263 1.35716H11.125V2.50002ZM8.00001 3.99314L7.08609 4.67934L8.00001 5.89655L8.91393 4.67934L8.00001 3.99314ZM4.87501 2.50002V1.35716L4.87372 1.35716L4.87501 2.50002ZM1.00001 6.37502L-0.142849 6.37373V6.37502H1.00001ZM7.76313 14.4375L8.30457 13.431L8.29786 13.4275L7.76313 14.4375ZM8.23688 14.4375L7.70214 13.4275L7.69545 13.431L8.23688 14.4375ZM15 6.37502H16.1429L16.1429 6.37373L15 6.37502ZM8.00001 13.425L7.42462 14.4125L8.00059 14.7481L8.57626 14.412L8.00001 13.425ZM2.00001 6.37502L0.857151 6.37353V6.37502H2.00001ZM4.87501 3.50002V2.35716L4.87352 2.35716L4.87501 3.50002ZM7.53751 5.18752L6.48002 5.62093L6.48036 5.62177L7.53751 5.18752ZM8.00001 5.49754V4.35468V5.49754ZM8.46251 5.18752L9.51965 5.62177L9.52026 5.62027L8.46251 5.18752ZM11.125 3.50002L11.1265 2.35716H11.125V3.50002ZM14 6.37502H15.1429L15.1429 6.37353L14 6.37502ZM11.125 2.50002V1.35716C9.5004 1.35716 8.0212 2.06151 7.08609 3.30694L8.00001 3.99314L8.91393 4.67934C9.38756 4.04853 10.1684 3.64288 11.125 3.64288V2.50002ZM8.00001 3.99314L8.91393 3.30694C7.97881 2.06151 6.49961 1.35716 4.87501 1.35716V2.50002V3.64288C5.83165 3.64288 6.61245 4.04853 7.08609 4.67934L8.00001 3.99314ZM4.87501 2.50002L4.87372 1.35716C3.5437 1.35866 2.26859 1.88767 1.32813 2.82814L2.13625 3.63626L2.94437 4.44438C3.45681 3.93194 4.15159 3.64369 4.87629 3.64288L4.87501 2.50002ZM2.13625 3.63626L1.32813 2.82814C0.387662 3.7686 -0.141349 5.04371 -0.142848 6.37373L1.00001 6.37502L2.14286 6.37631C2.14368 5.65161 2.43193 4.95682 2.94437 4.44438L2.13625 3.63626ZM1.00001 6.37502H-0.142849C-0.142849 9.0973 1.83546 11.3722 3.52503 12.8518C5.27488 14.3842 7.05163 15.354 7.2284 15.4476L7.76313 14.4375L8.29786 13.4275C8.19838 13.3748 6.59357 12.5008 5.03092 11.1323C3.408 9.711 2.14286 8.02773 2.14286 6.37502H1.00001ZM7.76313 14.4375L7.2217 15.444C7.46094 15.5727 7.72835 15.64 8.00001 15.64V14.4972V13.3543C8.10631 13.3543 8.21095 13.3807 8.30456 13.431L7.76313 14.4375ZM8.00001 14.4972V15.64C8.27166 15.64 8.53908 15.5727 8.77831 15.444L8.23688 14.4375L7.69545 13.431C7.78906 13.3807 7.8937 13.3543 8.00001 13.3543V14.4972ZM8.23688 14.4375L8.77161 15.4476C8.94838 15.354 10.7251 14.3842 12.475 12.8518C14.1646 11.3722 16.1429 9.0973 16.1429 6.37502H15H13.8571C13.8571 8.02773 12.592 9.711 10.9691 11.1323C9.40644 12.5008 7.80163 13.3748 7.70215 13.4275L8.23688 14.4375ZM15 6.37502L16.1429 6.37373C16.1414 5.04371 15.6123 3.7686 14.6719 2.82814L13.8638 3.63626L13.0556 4.44438C13.5681 4.95682 13.8563 5.65161 13.8571 6.37631L15 6.37502ZM13.8638 3.63626L14.6719 2.82814C13.7314 1.88767 12.4563 1.35866 11.1263 1.35716L11.125 2.50002L11.1237 3.64288C11.8484 3.64369 12.5432 3.93194 13.0556 4.44438L13.8638 3.63626ZM8.00001 13.425L8.57539 12.4376C8.03479 12.1226 6.61731 11.2482 5.34954 10.0714C4.02455 8.84149 3.14286 7.53801 3.14286 6.37502H2.00001H0.857151C0.857151 8.56765 2.40484 10.4567 3.79454 11.7466C5.24146 13.0897 6.82397 14.0625 7.42462 14.4125L8.00001 13.425ZM2.00001 6.37502L3.14286 6.37651C3.14346 5.9169 3.3263 5.47629 3.65129 5.1513L2.84317 4.34318L2.03505 3.53506C1.28213 4.28798 0.858538 5.30875 0.857152 6.37353L2.00001 6.37502ZM2.84317 4.34318L3.65129 5.1513C3.97628 4.82632 4.41689 4.64347 4.87649 4.64287L4.87501 3.50002L4.87352 2.35716C3.80874 2.35855 2.78796 2.78215 2.03505 3.53506L2.84317 4.34318ZM4.87501 3.50002V4.64288C5.67525 4.64288 6.24732 5.05318 6.48002 5.62093L7.53751 5.18752L8.59499 4.7541C7.97519 3.24186 6.50601 2.35716 4.87501 2.35716V3.50002ZM7.53751 5.18752L6.48036 5.62177C6.60414 5.92308 6.81469 6.1808 7.08528 6.36218L7.72161 5.41286L8.35794 4.46354C8.46382 4.53452 8.54621 4.63536 8.59465 4.75327L7.53751 5.18752ZM7.72161 5.41286L7.08528 6.36218C7.35586 6.54355 7.67426 6.64039 8.00001 6.64039V5.49754V4.35468C8.12747 4.35468 8.25206 4.39257 8.35794 4.46354L7.72161 5.41286ZM8.00001 5.49754V6.64039C8.32576 6.64039 8.64415 6.54355 8.91473 6.36218L8.2784 5.41286L7.64207 4.46354C7.74795 4.39257 7.87254 4.35468 8.00001 4.35468V5.49754ZM8.2784 5.41286L8.91473 6.36218C9.18532 6.1808 9.39588 5.92308 9.51965 5.62177L8.46251 5.18752L7.40536 4.75327C7.45379 4.63537 7.53619 4.53452 7.64207 4.46354L8.2784 5.41286ZM8.46251 5.18752L9.52026 5.62027C9.7527 5.05212 10.3237 4.64288 11.125 4.64288V3.50002V2.35716C9.49504 2.35716 8.02481 3.23917 7.40475 4.75477L8.46251 5.18752ZM11.125 3.50002L11.1235 4.64287C11.5831 4.64347 12.0237 4.82632 12.3487 5.1513L13.1568 4.34318L13.965 3.53506C13.212 2.78215 12.1913 2.35855 11.1265 2.35716L11.125 3.50002ZM13.1568 4.34318L12.3487 5.1513C12.6737 5.47629 12.8565 5.9169 12.8571 6.37651L14 6.37502L15.1429 6.37353C15.1415 5.30875 14.7179 4.28798 13.965 3.53506L13.1568 4.34318ZM14 6.37502H12.8571C12.8571 7.53521 11.9756 8.83842 10.6499 10.0694C9.38173 11.2469 7.96402 12.1226 7.42375 12.4381L8.00001 13.425L8.57626 14.412C9.17599 14.0618 10.7583 13.0878 12.2051 11.7444C13.5944 10.4544 15.1429 8.56545 15.1429 6.37502H14Z" fill="white" mask="url(#path-1-inside-1_1_911)"/>
</svg>
