<svg width="16" height="16" viewBox="0 0 16 16" fill="none" xmlns="http://www.w3.org/2000/svg">
<mask id="path-1-inside-1_1_870" fill="white">
<path d="M11.125 2.49999C9.83438 2.49999 8.70438 3.05499 8.00001 3.99311C7.29563 3.05499 6.16563 2.49999 4.87501 2.49999C3.84765 2.50115 2.8627 2.90978 2.13625 3.63623C1.4098 4.36268 1.00117 5.34763 1.00001 6.37499C1.00001 10.75 7.48688 14.2912 7.76313 14.4375C7.83594 14.4767 7.91733 14.4972 8.00001 14.4972C8.08268 14.4972 8.16407 14.4767 8.23688 14.4375C8.51313 14.2912 15 10.75 15 6.37499C14.9988 5.34763 14.5902 4.36268 13.8638 3.63623C13.1373 2.90978 12.1524 2.50115 11.125 2.49999ZM8.00001 13.425C6.85876 12.76 2.00001 9.73061 2.00001 6.37499C2.001 5.61279 2.30422 4.8821 2.84317 4.34315C3.38212 3.8042 4.11281 3.50098 4.87501 3.49999C6.09063 3.49999 7.11126 4.14749 7.53751 5.18749C7.57518 5.27919 7.63926 5.35763 7.72161 5.41283C7.80396 5.46803 7.90086 5.4975 8.00001 5.4975C8.09915 5.4975 8.19605 5.46803 8.2784 5.41283C8.36075 5.35763 8.42483 5.27919 8.46251 5.18749C8.88876 4.14561 9.90938 3.49999 11.125 3.49999C11.8872 3.50098 12.6179 3.8042 13.1568 4.34315C13.6958 4.8821 13.999 5.61279 14 6.37499C14 9.72561 9.14 12.7594 8.00001 13.425Z"/>
</mask>
<path d="M11.125 2.49999C9.83438 2.49999 8.70438 3.05499 8.00001 3.99311C7.29563 3.05499 6.16563 2.49999 4.87501 2.49999C3.84765 2.50115 2.8627 2.90978 2.13625 3.63623C1.4098 4.36268 1.00117 5.34763 1.00001 6.37499C1.00001 10.75 7.48688 14.2912 7.76313 14.4375C7.83594 14.4767 7.91733 14.4972 8.00001 14.4972C8.08268 14.4972 8.16407 14.4767 8.23688 14.4375C8.51313 14.2912 15 10.75 15 6.37499C14.9988 5.34763 14.5902 4.36268 13.8638 3.63623C13.1373 2.90978 12.1524 2.50115 11.125 2.49999ZM8.00001 13.425C6.85876 12.76 2.00001 9.73061 2.00001 6.37499C2.001 5.61279 2.30422 4.8821 2.84317 4.34315C3.38212 3.8042 4.11281 3.50098 4.87501 3.49999C6.09063 3.49999 7.11126 4.14749 7.53751 5.18749C7.57518 5.27919 7.63926 5.35763 7.72161 5.41283C7.80396 5.46803 7.90086 5.4975 8.00001 5.4975C8.09915 5.4975 8.19605 5.46803 8.2784 5.41283C8.36075 5.35763 8.42483 5.27919 8.46251 5.18749C8.88876 4.14561 9.90938 3.49999 11.125 3.49999C11.8872 3.50098 12.6179 3.8042 13.1568 4.34315C13.6958 4.8821 13.999 5.61279 14 6.37499C14 9.72561 9.14 12.7594 8.00001 13.425Z" fill="#343330"/>
<path d="M11.125 2.49999L11.1263 1.35713H11.125V2.49999ZM8.00001 3.99311L7.08609 4.67931L8.00001 5.89652L8.91393 4.67931L8.00001 3.99311ZM4.87501 2.49999V1.35713L4.87372 1.35713L4.87501 2.49999ZM1.00001 6.37499L-0.142849 6.3737V6.37499H1.00001ZM7.76313 14.4375L8.30457 13.431L8.29786 13.4274L7.76313 14.4375ZM8.23688 14.4375L7.70214 13.4274L7.69545 13.431L8.23688 14.4375ZM15 6.37499H16.1429L16.1429 6.3737L15 6.37499ZM8.00001 13.425L7.42462 14.4124L8.00059 14.748L8.57626 14.4119L8.00001 13.425ZM2.00001 6.37499L0.857151 6.3735V6.37499H2.00001ZM4.87501 3.49999V2.35713L4.87352 2.35713L4.87501 3.49999ZM7.53751 5.18749L6.48002 5.6209L6.48036 5.62174L7.53751 5.18749ZM8.00001 5.4975V4.35465V5.4975ZM8.46251 5.18749L9.51965 5.62174L9.52026 5.62024L8.46251 5.18749ZM11.125 3.49999L11.1265 2.35713H11.125V3.49999ZM14 6.37499H15.1429L15.1429 6.3735L14 6.37499ZM11.125 2.49999V1.35713C9.5004 1.35713 8.0212 2.06148 7.08609 3.30691L8.00001 3.99311L8.91393 4.67931C9.38756 4.0485 10.1684 3.64285 11.125 3.64285V2.49999ZM8.00001 3.99311L8.91393 3.30691C7.97881 2.06148 6.49961 1.35713 4.87501 1.35713V2.49999V3.64285C5.83165 3.64285 6.61245 4.0485 7.08609 4.67931L8.00001 3.99311ZM4.87501 2.49999L4.87372 1.35713C3.5437 1.35863 2.26859 1.88764 1.32813 2.82811L2.13625 3.63623L2.94437 4.44435C3.45681 3.93191 4.15159 3.64366 4.87629 3.64284L4.87501 2.49999ZM2.13625 3.63623L1.32813 2.82811C0.387662 3.76857 -0.141349 5.04368 -0.142848 6.3737L1.00001 6.37499L2.14286 6.37628C2.14368 5.65158 2.43193 4.95679 2.94437 4.44435L2.13625 3.63623ZM1.00001 6.37499H-0.142849C-0.142849 9.09727 1.83546 11.3721 3.52503 12.8518C5.27488 14.3842 7.05163 15.3539 7.2284 15.4475L7.76313 14.4375L8.29786 13.4274C8.19838 13.3748 6.59357 12.5008 5.03092 11.1323C3.408 9.71097 2.14286 8.0277 2.14286 6.37499H1.00001ZM7.76313 14.4375L7.2217 15.444C7.46094 15.5726 7.72835 15.64 8.00001 15.64V14.4972V13.3543C8.10631 13.3543 8.21095 13.3807 8.30456 13.431L7.76313 14.4375ZM8.00001 14.4972V15.64C8.27166 15.64 8.53908 15.5726 8.77831 15.444L8.23688 14.4375L7.69545 13.431C7.78906 13.3807 7.8937 13.3543 8.00001 13.3543V14.4972ZM8.23688 14.4375L8.77161 15.4475C8.94838 15.3539 10.7251 14.3842 12.475 12.8518C14.1646 11.3721 16.1429 9.09727 16.1429 6.37499H15H13.8571C13.8571 8.0277 12.592 9.71097 10.9691 11.1323C9.40644 12.5008 7.80163 13.3748 7.70215 13.4274L8.23688 14.4375ZM15 6.37499L16.1429 6.3737C16.1414 5.04368 15.6123 3.76857 14.6719 2.82811L13.8638 3.63623L13.0556 4.44435C13.5681 4.95679 13.8563 5.65158 13.8571 6.37628L15 6.37499ZM13.8638 3.63623L14.6719 2.82811C13.7314 1.88764 12.4563 1.35863 11.1263 1.35713L11.125 2.49999L11.1237 3.64284C11.8484 3.64366 12.5432 3.93191 13.0556 4.44435L13.8638 3.63623ZM8.00001 13.425L8.57539 12.4375C8.03479 12.1225 6.61731 11.2481 5.34954 10.0713C4.02455 8.84146 3.14286 7.53798 3.14286 6.37499H2.00001H0.857151C0.857151 8.56762 2.40484 10.4566 3.79454 11.7466C5.24146 13.0897 6.82397 14.0624 7.42462 14.4124L8.00001 13.425ZM2.00001 6.37499L3.14286 6.37648C3.14346 5.91687 3.3263 5.47626 3.65129 5.15127L2.84317 4.34315L2.03505 3.53503C1.28213 4.28794 0.858538 5.30872 0.857152 6.3735L2.00001 6.37499ZM2.84317 4.34315L3.65129 5.15127C3.97628 4.82628 4.41689 4.64344 4.87649 4.64284L4.87501 3.49999L4.87352 2.35713C3.80874 2.35852 2.78796 2.78212 2.03505 3.53503L2.84317 4.34315ZM4.87501 3.49999V4.64285C5.67525 4.64285 6.24732 5.05315 6.48002 5.6209L7.53751 5.18749L8.59499 4.75407C7.97519 3.24183 6.50601 2.35713 4.87501 2.35713V3.49999ZM7.53751 5.18749L6.48036 5.62174C6.60414 5.92305 6.81469 6.18077 7.08528 6.36215L7.72161 5.41283L8.35794 4.46351C8.46382 4.53449 8.54621 4.63533 8.59465 4.75324L7.53751 5.18749ZM7.72161 5.41283L7.08528 6.36215C7.35586 6.54352 7.67426 6.64036 8.00001 6.64036V5.4975V4.35465C8.12747 4.35465 8.25206 4.39254 8.35794 4.46351L7.72161 5.41283ZM8.00001 5.4975V6.64036C8.32576 6.64036 8.64415 6.54352 8.91473 6.36215L8.2784 5.41283L7.64207 4.46351C7.74795 4.39254 7.87254 4.35465 8.00001 4.35465V5.4975ZM8.2784 5.41283L8.91473 6.36215C9.18532 6.18077 9.39588 5.92305 9.51965 5.62174L8.46251 5.18749L7.40536 4.75324C7.45379 4.63534 7.53619 4.53449 7.64207 4.46351L8.2784 5.41283ZM8.46251 5.18749L9.52026 5.62024C9.7527 5.05209 10.3237 4.64285 11.125 4.64285V3.49999V2.35713C9.49504 2.35713 8.02481 3.23914 7.40475 4.75474L8.46251 5.18749ZM11.125 3.49999L11.1235 4.64284C11.5831 4.64344 12.0237 4.82628 12.3487 5.15127L13.1568 4.34315L13.965 3.53503C13.212 2.78212 12.1913 2.35852 11.1265 2.35713L11.125 3.49999ZM13.1568 4.34315L12.3487 5.15127C12.6737 5.47626 12.8565 5.91687 12.8571 6.37648L14 6.37499L15.1429 6.3735C15.1415 5.30872 14.7179 4.28795 13.965 3.53503L13.1568 4.34315ZM14 6.37499H12.8571C12.8571 7.53518 11.9756 8.83839 10.6499 10.0694C9.38173 11.2469 7.96402 12.1226 7.42375 12.438L8.00001 13.425L8.57626 14.4119C9.17599 14.0618 10.7583 13.0878 12.2051 11.7444C13.5944 10.4544 15.1429 8.56542 15.1429 6.37499H14Z" fill="white" mask="url(#path-1-inside-1_1_870)"/>
</svg>
