<svg width="23" height="23" viewBox="0 0 23 23" fill="none" xmlns="http://www.w3.org/2000/svg">
<path d="M10.0624 5.39062C10.0624 5.10631 10.1467 4.82838 10.3047 4.59198C10.4627 4.35559 10.6872 4.17134 10.9498 4.06254C11.2125 3.95374 11.5015 3.92527 11.7804 3.98074C12.0592 4.03621 12.3154 4.17311 12.5164 4.37415C12.7174 4.57519 12.8543 4.83133 12.9098 5.11017C12.9653 5.38902 12.9368 5.67805 12.828 5.94072C12.7192 6.20339 12.535 6.4279 12.2986 6.58585C12.0622 6.7438 11.7842 6.82811 11.4999 6.82811C11.1187 6.82811 10.7531 6.67666 10.4835 6.40708C10.2139 6.1375 10.0624 5.77186 10.0624 5.39062ZM11.4999 10.0625C11.2156 10.0625 10.9377 10.1468 10.7013 10.3047C10.4649 10.4627 10.2807 10.6872 10.1719 10.9499C10.0631 11.2125 10.0346 11.5016 10.0901 11.7804C10.1455 12.0593 10.2824 12.3154 10.4835 12.5164C10.6845 12.7175 10.9406 12.8544 11.2195 12.9099C11.4983 12.9653 11.7874 12.9369 12.05 12.8281C12.3127 12.7193 12.5372 12.535 12.6952 12.2986C12.8531 12.0622 12.9374 11.7843 12.9374 11.5C12.9374 11.1187 12.786 10.7531 12.5164 10.4835C12.2468 10.2139 11.8812 10.0625 11.4999 10.0625ZM11.4999 16.1718C11.2156 16.1718 10.9377 16.2562 10.7013 16.4141C10.4649 16.5721 10.2807 16.7966 10.1719 17.0592C10.0631 17.3219 10.0346 17.6109 10.0901 17.8898C10.1455 18.1686 10.2824 18.4248 10.4835 18.6258C10.6845 18.8268 10.9406 18.9638 11.2195 19.0192C11.4983 19.0747 11.7874 19.0462 12.05 18.9374C12.3127 18.8286 12.5372 18.6444 12.6952 18.408C12.8531 18.1716 12.9374 17.8937 12.9374 17.6093C12.9374 17.2281 12.786 16.8625 12.5164 16.5929C12.2468 16.3233 11.8812 16.1718 11.4999 16.1718Z" fill="white"/>
</svg>
