<svg width="16" height="16" viewBox="0 0 16 16" fill="none" xmlns="http://www.w3.org/2000/svg">
<path d="M5.30245 13.1147V10.5715H3.54611C3.3132 10.5715 3.08984 10.479 2.92515 10.3143C2.76046 10.1496 2.66794 9.92622 2.66794 9.69331V3.54611C2.66794 3.3132 2.76046 3.08984 2.92515 2.92515C3.08984 2.76046 3.3132 2.66794 3.54611 2.66794H13.206C13.4389 2.66794 13.6623 2.76046 13.827 2.92515C13.9916 3.08984 14.0842 3.3132 14.0842 3.54611V9.69331C14.0842 9.92622 13.9916 10.1496 13.827 10.3143C13.6623 10.479 13.4389 10.5715 13.206 10.5715H8.37605L5.67743 13.2701C5.64673 13.3009 5.60757 13.3219 5.56494 13.3304C5.5223 13.3389 5.47809 13.3345 5.43793 13.3179C5.39776 13.3012 5.36345 13.273 5.33933 13.2368C5.31521 13.2007 5.30238 13.1581 5.30245 13.1147Z" stroke="white" stroke-width="1.13364"/>
<path d="M5.30468 7.93723H11.4519M5.30468 5.30271H11.4519" stroke="white" stroke-width="1.13364" stroke-linecap="round"/>
</svg>
