<svg width="16" height="16" viewBox="0 0 16 16" fill="none" xmlns="http://www.w3.org/2000/svg">
<path d="M4.27701 6.00232C4.21521 6.064 4.16618 6.13726 4.13273 6.21791C4.09927 6.29856 4.08205 6.38501 4.08205 6.47232C4.08205 6.55964 4.09927 6.64609 4.13273 6.72674C4.16618 6.80739 4.21521 6.88065 4.27701 6.94232L7.33701 10.0023C7.39869 10.0641 7.47195 10.1132 7.5526 10.1466C7.63325 10.1801 7.7197 10.1973 7.80701 10.1973C7.89433 10.1973 7.98078 10.1801 8.06143 10.1466C8.14208 10.1132 8.21534 10.0641 8.27701 10.0023L11.337 6.94232C11.3987 6.8806 11.4477 6.80733 11.4811 6.72669C11.5145 6.64604 11.5317 6.55961 11.5317 6.47232C11.5317 6.38504 11.5145 6.2986 11.4811 6.21796C11.4477 6.13732 11.3987 6.06405 11.337 6.00232C11.2753 5.9406 11.202 5.89164 11.1214 5.85824C11.0407 5.82484 10.9543 5.80764 10.867 5.80764C10.7797 5.80764 10.6933 5.82484 10.6127 5.85824C10.532 5.89164 10.4587 5.9406 10.397 6.00232L7.80368 8.58899L5.21701 6.00232C4.95701 5.74232 4.53035 5.74899 4.27701 6.00232Z" fill="white"/>
</svg>
