<svg width="24" height="24" viewBox="0 0 24 24" fill="none" xmlns="http://www.w3.org/2000/svg">
<path d="M21.1744 9.63937C20.8209 9.27 20.4553 8.88938 20.3175 8.55469C20.19 8.24813 20.1825 7.74 20.175 7.24781C20.1609 6.33281 20.1459 5.29594 19.425 4.575C18.7041 3.85406 17.6672 3.83906 16.7522 3.825C16.26 3.8175 15.7519 3.81 15.4453 3.6825C15.1116 3.54469 14.73 3.17906 14.3606 2.82562C13.7137 2.20406 12.9788 1.5 12 1.5C11.0212 1.5 10.2872 2.20406 9.63937 2.82562C9.27 3.17906 8.88938 3.54469 8.55469 3.6825C8.25 3.81 7.74 3.8175 7.24781 3.825C6.33281 3.83906 5.29594 3.85406 4.575 4.575C3.85406 5.29594 3.84375 6.33281 3.825 7.24781C3.8175 7.74 3.81 8.24813 3.6825 8.55469C3.54469 8.88844 3.17906 9.27 2.82562 9.63937C2.20406 10.2863 1.5 11.0212 1.5 12C1.5 12.9788 2.20406 13.7128 2.82562 14.3606C3.17906 14.73 3.54469 15.1106 3.6825 15.4453C3.81 15.7519 3.8175 16.26 3.825 16.7522C3.83906 17.6672 3.85406 18.7041 4.575 19.425C5.29594 20.1459 6.33281 20.1609 7.24781 20.175C7.74 20.1825 8.24813 20.19 8.55469 20.3175C8.88844 20.4553 9.27 20.8209 9.63937 21.1744C10.2863 21.7959 11.0212 22.5 12 22.5C12.9788 22.5 13.7128 21.7959 14.3606 21.1744C14.73 20.8209 15.1106 20.4553 15.4453 20.3175C15.7519 20.19 16.26 20.1825 16.7522 20.175C17.6672 20.1609 18.7041 20.1459 19.425 19.425C20.1459 18.7041 20.1609 17.6672 20.175 16.7522C20.1825 16.26 20.19 15.7519 20.3175 15.4453C20.4553 15.1116 20.8209 14.73 21.1744 14.3606C21.7959 13.7137 22.5 12.9788 22.5 12C22.5 11.0212 21.7959 10.2872 21.1744 9.63937Z" fill="url(#paint0_linear_1_823)"/>
<path d="M10.1459 8.00304L9.00758 8.00304L9.00758 14.5374C9.43303 14.4991 9.80709 14.4024 10.1459 14.2634L10.1459 8.00304Z" fill="white"/>
<path d="M12.8138 12.2275L12.8138 8L11.6754 8L11.6754 13.2626C11.8572 13.1031 12.0362 12.9376 12.2161 12.7701C12.4112 12.5886 12.6082 12.406 12.8128 12.2275H12.8138Z" fill="white"/>
<path d="M9.11562 14.8393C9.34051 15.0963 9.64068 15.2793 9.97271 15.3242C10.0963 15.3412 10.2227 15.3412 10.3482 15.3222C12.1926 15.0483 13.2543 12.6936 15.3671 12.0987V11.0828C15.3334 11.0898 15.3015 11.0978 15.2716 11.1048C12.5112 11.7917 11.8674 14.4714 9.00076 14.7073L9.11562 14.8393Z" fill="white"/>
<path d="M11.2432 16.3601C11.7608 16.651 12.3674 16.7446 12.9354 16.5856C12.9392 16.5846 12.9431 16.5836 12.947 16.5826C13.6648 16.3762 14.1399 15.6838 14.7271 15.2268C14.9284 15.0567 15.1354 14.8977 15.356 14.7558C15.3647 14.7507 15.3725 14.7457 15.3812 14.7407V13.6365C14.7175 13.9304 14.1641 14.4689 13.631 14.9551L13.6174 14.9681C12.8202 15.6878 12.2243 16.4165 11.0807 16.2696L11.2442 16.3611L11.2432 16.3601Z" fill="white"/>
<path d="M12.3871 15.811C13.4176 15.0599 14.2157 13.9949 15.3876 13.4568V12.2908C15.3741 12.2948 15.3605 12.2989 15.3479 12.3029C14.3339 12.6482 13.5997 13.2963 12.852 13.9929L12.8384 14.005C12.1304 14.6551 11.3004 15.4456 10.3174 15.5819C10.235 15.595 10.1033 15.601 9.99096 15.6152C10.3793 15.916 10.8462 16.0987 11.3295 16.1058C11.7043 16.1119 12.0694 16.0351 12.3861 15.811H12.3871Z" fill="white"/>
<path d="M11.4784 8.00201L10.3401 8.00201L10.3401 14.1835C10.7608 13.9862 11.1291 13.7255 11.4784 13.4316L11.4784 8.00201Z" fill="white"/>
<path d="M10.146 8.00335L9.00761 8.00335L9.00761 14.5377C9.43306 14.4994 9.80712 14.4027 10.146 14.2638L10.146 8.00335Z" fill="white"/>
<path d="M9.11565 14.8396C9.34054 15.0966 9.64071 15.2796 9.97274 15.3245C10.0963 15.3415 10.2227 15.3415 10.3482 15.3225C12.1927 15.0486 13.2544 12.6939 15.3672 12.099V11.0832C15.3334 11.0902 15.3015 11.0982 15.2716 11.1051C12.5112 11.7921 11.8674 14.4717 9.00079 14.7076L9.11565 14.8396Z" fill="white"/>
<defs>
<linearGradient id="paint0_linear_1_823" x1="12" y1="1.5" x2="12" y2="22.5" gradientUnits="userSpaceOnUse">
<stop offset="0.0001" stop-color="#B55DD9"/>
<stop offset="1" stop-color="#5054C9"/>
</linearGradient>
</defs>
</svg>
