<svg width="19" height="19" viewBox="0 0 19 19" fill="none" xmlns="http://www.w3.org/2000/svg">
<path d="M16.7631 7.63117C16.4833 7.33875 16.1938 7.03742 16.0847 6.77246C15.9838 6.52977 15.9778 6.1275 15.9719 5.73785C15.9608 5.01348 15.9489 4.19262 15.3781 3.62188C14.8074 3.05114 13.9865 3.03926 13.2622 3.02813C12.8725 3.02219 12.4703 3.01625 12.2276 2.91532C11.9633 2.80621 11.6613 2.51676 11.3689 2.23696C10.8567 1.74489 10.2749 1.1875 9.50003 1.1875C8.72518 1.1875 8.14405 1.74489 7.6312 2.23696C7.33878 2.51676 7.03745 2.80621 6.77249 2.91532C6.53128 3.01625 6.12753 3.02219 5.73788 3.02813C5.0135 3.03926 4.19264 3.05114 3.6219 3.62188C3.05116 4.19262 3.043 5.01348 3.02815 5.73785C3.02221 6.1275 3.01628 6.52977 2.91534 6.77246C2.80624 7.03668 2.51678 7.33875 2.23698 7.63117C1.74491 8.14328 1.18753 8.72516 1.18753 9.5C1.18753 10.2748 1.74491 10.856 2.23698 11.3688C2.51678 11.6613 2.80624 11.9626 2.91534 12.2275C3.01628 12.4702 3.02221 12.8725 3.02815 13.2622C3.03928 13.9865 3.05116 14.8074 3.6219 15.3781C4.19264 15.9489 5.0135 15.9607 5.73788 15.9719C6.12753 15.9778 6.52979 15.9838 6.77249 16.0847C7.03671 16.1938 7.33878 16.4832 7.6312 16.763C8.14331 17.2551 8.72518 17.8125 9.50003 17.8125C10.2749 17.8125 10.856 17.2551 11.3689 16.763C11.6613 16.4832 11.9626 16.1938 12.2276 16.0847C12.4703 15.9838 12.8725 15.9778 13.2622 15.9719C13.9865 15.9607 14.8074 15.9489 15.3781 15.3781C15.9489 14.8074 15.9608 13.9865 15.9719 13.2622C15.9778 12.8725 15.9838 12.4702 16.0847 12.2275C16.1938 11.9633 16.4833 11.6613 16.7631 11.3688C17.2551 10.8567 17.8125 10.2748 17.8125 9.5C17.8125 8.72516 17.2551 8.14403 16.7631 7.63117Z" fill="url(#paint0_linear_1_848)"/>
<path d="M7.96003 6.26333L7.05882 6.26333L7.05882 11.4364C7.39564 11.4061 7.69177 11.3295 7.96002 11.2195L7.96003 6.26333Z" fill="white"/>
<path d="M10.0721 9.6077L10.0721 6.26092L9.17087 6.26092L9.17087 10.4271C9.3148 10.3009 9.45646 10.1699 9.59887 10.0373C9.75334 9.89354 9.90932 9.74903 10.0713 9.6077H10.0721Z" fill="white"/>
<path d="M7.14436 11.6754C7.3224 11.8788 7.56003 12.0237 7.82289 12.0593C7.92069 12.0727 8.02079 12.0727 8.12012 12.0577C9.58033 11.8408 10.4208 9.9767 12.0935 9.50573V8.70151C12.0667 8.70705 12.0415 8.71339 12.0178 8.71893C9.83249 9.26272 9.32283 11.3841 7.05343 11.5709L7.14436 11.6754Z" fill="white"/>
<path d="M8.82872 12.8794C9.23849 13.1096 9.71872 13.1838 10.1683 13.0579C10.1714 13.0571 10.1744 13.0563 10.1775 13.0555C10.7458 12.8921 11.1219 12.3439 11.5868 11.9821C11.7461 11.8475 11.91 11.7216 12.0847 11.6092C12.0916 11.6053 12.0977 11.6013 12.1046 11.5973V10.7232C11.5792 10.9558 11.141 11.3821 10.719 11.767L10.7083 11.7774C10.0772 12.3471 9.60536 12.924 8.70004 12.8077L8.82948 12.8802L8.82872 12.8794Z" fill="white"/>
<path d="M9.73429 12.4447C10.5501 11.85 11.1819 11.0069 12.1097 10.5809V9.65779C12.099 9.66099 12.0882 9.66418 12.0783 9.66738C11.2755 9.94071 10.6943 10.4538 10.1023 11.0053L10.0916 11.0149C9.5311 11.5295 8.87399 12.1553 8.09573 12.2632C8.03056 12.2736 7.92628 12.2784 7.83734 12.2896C8.1448 12.5278 8.51438 12.6724 8.89699 12.678C9.19372 12.6828 9.48279 12.6221 9.73352 12.4447H9.73429Z" fill="white"/>
<path d="M9.01493 6.26252L8.11373 6.26252L8.11373 11.1562C8.44678 11 8.73839 10.7936 9.01493 10.5609L9.01493 6.26252Z" fill="white"/>
<path d="M7.95977 6.26357L7.05857 6.26357L7.05857 11.4366C7.39539 11.4063 7.69152 11.3298 7.95977 11.2197L7.95977 6.26357Z" fill="white"/>
<path d="M7.1441 11.6756C7.32214 11.879 7.55978 12.0239 7.82263 12.0595C7.92044 12.073 8.02053 12.073 8.11987 12.0579C9.58008 11.8411 10.4206 9.97694 12.0932 9.50597V8.70175C12.0665 8.70729 12.0413 8.71362 12.0176 8.71916C9.83223 9.26296 9.32257 11.3843 7.05317 11.5711L7.1441 11.6756Z" fill="white"/>
<defs>
<linearGradient id="paint0_linear_1_848" x1="9.50003" y1="1.1875" x2="9.50003" y2="17.8125" gradientUnits="userSpaceOnUse">
<stop offset="0.0001" stop-color="#B55DD9"/>
<stop offset="1" stop-color="#5054C9"/>
</linearGradient>
</defs>
</svg>
