<svg width="82" height="40" viewBox="0 0 82 40" fill="none" xmlns="http://www.w3.org/2000/svg">
<g clip-path="url(#clip0_1_95955)">
<path d="M1.59958 11.3105L-0.725215 11.3105L-0.725216 24.4292C0.143667 24.3523 0.907585 24.1582 1.59958 23.8792L1.59958 11.3105Z" fill="#7A58D0"/>
<path d="M4.32089 11.3084L1.99609 11.3084V11.3043L1.99609 23.7187C2.85525 23.3226 3.60751 22.7992 4.32088 22.2091L4.32089 11.3084Z" fill="#7A58D0"/>
<path d="M7.04797 19.7917L7.04797 11.3043L4.72317 11.3043L4.72317 21.8698C5.09444 21.5496 5.45988 21.2173 5.82726 20.8811C6.22574 20.5166 6.62811 20.1501 7.04603 19.7917H7.04797Z" fill="#7A58D0"/>
<path d="M-0.504566 25.0353C-0.0452904 25.5512 0.567734 25.9186 1.24581 26.0089C1.49811 26.043 1.75633 26.043 2.01258 26.0049C5.77943 25.4549 7.94769 20.7275 12.2625 19.5331V17.4936C12.1935 17.5077 12.1285 17.5238 12.0674 17.5378C6.42991 18.9169 5.11516 24.2966 -0.739132 24.7703L-0.504566 25.0353Z" fill="#7A58D0"/>
<path d="M3.84052 28.0886C4.89759 28.6726 6.13643 28.8605 7.29624 28.5413C7.30415 28.5392 7.31205 28.5372 7.31995 28.5352C8.78602 28.121 9.75615 26.7307 10.9555 25.8133C11.3665 25.4718 11.7893 25.1525 12.2398 24.8676C12.2576 24.8575 12.2734 24.8474 12.2911 24.8373V22.6205C10.9357 23.2106 9.80555 24.2917 8.71687 25.2677L8.68921 25.294C7.06112 26.7388 5.84401 28.2018 3.50858 27.9068L3.84249 28.0906L3.84052 28.0886Z" fill="#7A58D0"/>
<path d="M6.17659 26.9862C8.28115 25.4782 9.911 23.34 12.3043 22.2597V19.9187C12.2767 19.9269 12.249 19.935 12.2233 19.9431C10.1523 20.6362 8.65301 21.9374 7.12602 23.3359L7.09832 23.3602C5.65242 24.6655 3.9573 26.2525 1.94966 26.5261C1.78153 26.5524 1.51253 26.5646 1.28308 26.593C2.07625 27.197 3.02963 27.5638 4.01664 27.578C4.78212 27.5902 5.52781 27.4361 6.17461 26.9862H6.17659Z" fill="#7A58D0"/>
<path d="M21.5987 11.3063V26.2505H29.3605V27.4217H19.2609V11.3063H21.5987Z" fill="white"/>
<path d="M66.3517 27.4198L66.3516 11.3043H68.6431L68.6432 27.4198H66.3517Z" fill="white"/>
<path d="M35.8057 15.4595C32.3736 15.4595 29.5676 17.8665 29.5676 21.6266C29.5676 25.3866 32.3728 27.7936 35.8057 27.7936C39.2385 27.7936 42.0437 25.3642 42.0437 21.6266C42.0437 17.8889 39.2385 15.4595 35.8057 15.4595ZM35.8057 26.6238C33.1824 26.6238 31.982 24.7074 31.982 21.6248C31.982 18.5421 33.1832 16.6032 35.8057 16.6032C38.4281 16.6032 39.6302 18.5277 39.6302 21.6248C39.6302 24.7218 38.429 26.6238 35.8057 26.6238Z" fill="white"/>
<path d="M48.4744 21.2174L52.2103 15.8952H50.2962L47.5043 19.8963L44.6945 15.8952H41.784L45.9737 21.8621L42.0829 27.4191H43.9775L46.9421 23.2049L49.9068 27.4191H52.8173L48.4744 21.2183V21.2174Z" fill="white"/>
<path d="M62.6338 15.821V16.293C62.0491 15.9496 60.9443 15.4919 59.1245 15.4919C55.1174 15.4919 52.7171 17.6885 52.7171 21.6707C52.7171 25.2861 54.6186 27.8261 57.7814 27.8261C60.6626 27.8261 61.9342 26.0269 62.6338 24.7034V27.3918H64.5991V15.821H62.6338ZM62.2338 22.9744C61.6678 25.3391 59.6071 26.6671 57.847 26.6671C55.4595 26.6671 54.9582 23.95 54.9582 21.6707C54.9582 19.3914 55.7072 16.6509 59.276 16.6509C60.7877 16.6509 62.1844 17.2218 62.6338 17.6354C62.6261 19.2817 62.6866 21.0818 62.2338 22.9744Z" fill="white"/>
<path d="M79.9043 15.821V16.293C79.3195 15.9496 78.2147 15.4919 76.395 15.4919C72.3878 15.4919 69.9876 17.6885 69.9876 21.6707C69.9876 25.2861 71.889 27.8261 75.0519 27.8261C77.933 27.8261 79.2046 26.0269 79.9043 24.7034V27.3918H81.8696V15.821H79.9043ZM79.5034 22.9744C78.9374 25.3391 76.8768 26.6671 75.1166 26.6671C72.7291 26.6671 72.2278 23.95 72.2278 21.6707C72.2278 19.3914 72.9768 16.6509 76.5457 16.6509C78.0573 16.6509 79.454 17.2218 79.9034 17.6354C79.8958 19.2817 79.9562 21.0818 79.5034 22.9744Z" fill="white"/>
</g>
<defs>
<clipPath id="clip0_1_95955">
<rect width="82" height="40" fill="white"/>
</clipPath>
</defs>
</svg>
